<svg xmlns="http://www.w3.org/2000/svg" viewBox="0 0 64 57"><title>Cart Plus</title><g id="Layer_2" data-name="Layer 2"><g id="Cart"><path d="M57,35a2,2,0,0,0,2-1.59l5-24a2,2,0,0,0-.41-1.67A2,2,0,0,0,62,7H16L15,1.62A2,2,0,0,0,13,0H2A2,2,0,0,0,2,4h9.35L19,43.38h0l0,.12s0,.08,0,.12A7,7,0,1,0,26.89,45H48.11a7,7,0,1,0,8.58-.94A2,2,0,0,0,55,41H22.65l-1.17-6Zm2.54-24L55.37,31H20.7L16.79,11ZM22,53a3,3,0,1,1,3-3A3,3,0,0,1,22,53Zm31,0a3,3,0,1,1,3-3A3,3,0,0,1,53,53Z"/><path d="M32.5,23h4v4a2,2,0,0,0,4,0V23h4a2,2,0,0,0,0-4h-4V15a2,2,0,0,0-4,0v4h-4a2,2,0,0,0,0,4Z"/></g></g></svg>