<svg xmlns="http://www.w3.org/2000/svg" viewBox="0 0 22.58 17.77"><defs><style>.cls-1{fill:#fefefe;}</style></defs><g id="Layer_2" data-name="Layer 2"><g id="Layer_1-2" data-name="Layer 1"><g id="_2TFdgl" data-name="2TFdgl"><path d="M21.26,4.42a10.3,10.3,0,0,1,.32,3.86,10,10,0,0,1-4.83,7.85A10.45,10.45,0,0,1,.82,8.64,10.14,10.14,0,0,1,2.63,1.28a2.43,2.43,0,0,1,.14-.2C3.17.58,3.61.47,4,.76a.9.9,0,0,1,.15,1.3c-.3.5-.63,1-.88,1.52a8.73,8.73,0,1,0,16.52,5A8.24,8.24,0,0,0,19.63,5c-.19.18-.32.39-.51.48a1.41,1.41,0,0,1-.8.22c-.33-.07-.45-.38-.43-.76.09-1.15.14-2.31.22-3.47.05-.79.59-1,1.24-.58l2.73,2c.34.24.59.51.47,1s-.49.46-.85.5Z"/><path d="M11.47,16.36a19.41,19.41,0,0,1-5.1-.55L5.8,15.6a2,2,0,0,1-.59-3.4A10.83,10.83,0,0,1,8.3,10.34c.17-.08.35-.14.52-.21A1.12,1.12,0,0,0,9.31,8.2,6.85,6.85,0,0,1,7.88,5.29a4.43,4.43,0,0,1,.77-4A3.66,3.66,0,0,1,12.56.16a3.32,3.32,0,0,1,2.53,2.78A6.33,6.33,0,0,1,13.77,8c-.1.13-.21.26-.3.4A1.13,1.13,0,0,0,14,10.15a36.69,36.69,0,0,1,3.29,1.72,2.18,2.18,0,0,1,1.11,1.92,1.54,1.54,0,0,1-1,1.61,15.31,15.31,0,0,1-2.9.77A29.17,29.17,0,0,1,11.47,16.36Z"/><path class="cls-1" d="M11.5,15.28a8.74,8.74,0,0,1-3.11-.47l-.34-.17a2,2,0,0,1-.36-2.88,6.59,6.59,0,0,1,1.88-1.57L9.88,10a1.08,1.08,0,0,0,.3-1.63,6.85,6.85,0,0,1-.86-2.46A4.87,4.87,0,0,1,9.78,2.5a1.86,1.86,0,0,1,2.38-.91A2.64,2.64,0,0,1,13.7,3.94a7,7,0,0,1-.8,4.27c-.06.12-.13.22-.19.34A1.13,1.13,0,0,0,13.06,10a19.6,19.6,0,0,1,2,1.46,2.06,2.06,0,0,1,.68,1.61,1.41,1.41,0,0,1-.59,1.36,7.37,7.37,0,0,1-1.76.66A14.9,14.9,0,0,1,11.5,15.28Z"/><path d="M1.29,4A10.08,10.08,0,0,0,.81,7.85a10,10,0,0,0,4.5,8.05A10.44,10.44,0,0,0,21.53,9.08,10.13,10.13,0,0,0,20,1.65a2.39,2.39,0,0,0-.13-.21c-.38-.51-.82-.64-1.25-.37a.9.9,0,0,0-.2,1.29,16.5,16.5,0,0,1,.81,1.56A8.72,8.72,0,1,1,2.55,8.26,8.2,8.2,0,0,1,2.89,4.7c.18.19.3.4.49.5a1.34,1.34,0,0,0,.79.25c.34,0,.47-.36.46-.73,0-1.16,0-2.32-.07-3.48C4.54.44,4,.17,3.35.6,2.4,1.22,1.47,1.85.53,2.46c-.34.23-.61.48-.51.94s.48.48.83.54Z"/></g></g></g></svg>